<?xml version="1.0" encoding="iso-8859-1"?>
<!-- Generator: Adobe Illustrator 18.1.1, SVG Export Plug-In . SVG Version: 6.00 Build 0)  -->
<svg version="1.1" id="Capa_1" xmlns="http://www.w3.org/2000/svg" xmlns:xlink="http://www.w3.org/1999/xlink" x="0px" y="0px"
	 viewBox="0 0 375.04 375.04" style="enable-background:new 0 0 375.04 375.04;" xml:space="preserve">
<g>
	<g id="Layer_5_77_">
		<path d="M365.938,8.173c-18.008-16.392-48.41-3.005-62.883,11.475c0,0-33.939,32.109-48.018,44.313
			c-3.334,2.89-6.641,1.855-6.641,1.855L95.341,38.898c-6.58-0.938-15.801,2.136-20.494,6.836L61.185,59.392
			c-4.703,4.695-3.691,10.982,2.244,13.967l112.941,58.683c0,0,8.709,4.326,3.459,9.326c-18.617,17.73-50.209,49.563-67.314,66.77
			c-5.607,5.641-13.006,4.793-13.006,4.793l-52.154-6.371c-6.633-0.475-15.893,2.979-20.596,7.675L3.107,237.893
			c-4.697,4.697-3.99,11.502,1.584,15.125l86.676,20.646c5.574,3.621,7.094,5.137,10.713,10.703l19.295,85.343
			c3.623,5.569,10.43,6.277,15.127,1.583l23.658-23.663c4.693-4.694,8.156-13.957,7.689-20.579l-6.186-50.286
			c0,0-0.918-6.397,2.596-9.958c17.371-17.601,51.955-51.27,70.17-69.719c5.65-5.721,8.043,1.451,8.043,1.451l58.281,112.134
			c2.982,5.94,9.275,6.954,13.973,2.258l13.658-13.668c4.691-4.698,7.779-13.919,6.85-20.492L309.36,130.072
			c0,0-1.113-5.204,2.023-8.592c11.238-12.143,44.842-48.672,44.842-48.672C370.692,58.334,384.83,25.368,365.938,8.173z"/>
	</g>
</g>
<g>
</g>
<g>
</g>
<g>
</g>
<g>
</g>
<g>
</g>
<g>
</g>
<g>
</g>
<g>
</g>
<g>
</g>
<g>
</g>
<g>
</g>
<g>
</g>
<g>
</g>
<g>
</g>
<g>
</g>
</svg>
