<?xml version="1.0" encoding="iso-8859-1"?>
<!-- Generator: Adobe Illustrator 16.0.0, SVG Export Plug-In . SVG Version: 6.00 Build 0)  -->
<!DOCTYPE svg PUBLIC "-//W3C//DTD SVG 1.1//EN" "http://www.w3.org/Graphics/SVG/1.1/DTD/svg11.dtd">
<svg version="1.1" id="Capa_1" xmlns="http://www.w3.org/2000/svg" xmlns:xlink="http://www.w3.org/1999/xlink" x="0px" y="0px"
	 width="31.883px" height="31.883px" viewBox="0 0 31.883 31.883" style="enable-background:new 0 0 31.883 31.883;"
	 xml:space="preserve">
<g>
	<g>
		<path d="M25.704,15.879c3.896-3.34,5.88-6.568,4.719-8.292c-0.539-0.801-1.69-1.182-3.27-1.182c-1.684,0-3.846,0.434-6.262,1.247
			C19.871,3.064,18.037,0,15.94,0c-2.111,0-3.957,3.105-4.97,7.743C8.574,6.962,6.421,6.548,4.74,6.548
			c-1.643,0-2.841,0.394-3.384,1.224c-1.138,1.739,0.884,4.941,4.823,8.229c-3.897,3.34-5.879,6.568-4.718,8.293
			C2,25.098,3.152,25.477,4.733,25.477c1.68,0,3.843-0.435,6.258-1.244c1.017,4.587,2.852,7.65,4.95,7.65
			c2.113,0,3.958-3.104,4.97-7.742c2.396,0.781,4.55,1.193,6.23,1.193c1.646,0,2.84-0.394,3.385-1.223
			C31.667,22.371,29.645,19.167,25.704,15.879z M27.153,8.574c0.986,0,1.39,0.158,1.49,0.21c0.045,0.75-1.307,2.997-4.623,5.773
			c-0.748-0.556-1.547-1.109-2.392-1.652c-0.073-1.079-0.188-2.12-0.341-3.11C23.557,9.013,25.604,8.574,27.153,8.574z
			 M17.979,18.719c-0.662,0.381-1.33,0.746-1.999,1.088c-0.681-0.338-1.362-0.697-2.039-1.074c-0.572-0.321-1.116-0.643-1.639-0.965
			c-0.025-0.588-0.04-1.194-0.04-1.824c0-0.609,0.014-1.196,0.038-1.766c0.511-0.321,1.044-0.645,1.607-0.969
			c0.677-0.39,1.358-0.76,2.04-1.11c0.668,0.333,1.335,0.686,1.997,1.056c0.572,0.321,1.117,0.641,1.641,0.96
			c0.023,0.589,0.04,1.197,0.04,1.829c0,0.623-0.015,1.225-0.039,1.808C19.073,18.071,18.539,18.393,17.979,18.719z M19.393,20.326
			c-0.035,0.328-0.072,0.648-0.115,0.962c-0.301-0.121-0.604-0.246-0.906-0.376c0.223-0.125,0.441-0.25,0.666-0.377
			C19.153,20.467,19.272,20.395,19.393,20.326z M13.592,20.949c-0.325,0.145-0.649,0.283-0.971,0.416
			c-0.047-0.332-0.088-0.675-0.127-1.025c0.137,0.078,0.274,0.157,0.415,0.234C13.139,20.701,13.366,20.826,13.592,20.949z
			 M10.15,16.37c-0.182-0.125-0.36-0.251-0.535-0.377c0.175-0.127,0.353-0.257,0.535-0.386c-0.001,0.111-0.002,0.222-0.002,0.334
			C10.148,16.084,10.149,16.229,10.15,16.37z M12.494,11.554c0.035-0.328,0.073-0.649,0.116-0.961
			c0.301,0.121,0.603,0.246,0.907,0.375c-0.222,0.125-0.443,0.25-0.666,0.378C12.729,11.415,12.611,11.485,12.494,11.554z
			 M18.339,10.958c0.312-0.138,0.623-0.271,0.933-0.398c0.045,0.317,0.084,0.648,0.121,0.981c-0.139-0.078-0.273-0.157-0.416-0.234
			C18.766,11.189,18.553,11.072,18.339,10.958z M21.733,15.51c0.189,0.134,0.381,0.266,0.562,0.398
			c-0.185,0.134-0.371,0.27-0.562,0.407c0.002-0.123,0.002-0.248,0.002-0.373C21.735,15.797,21.735,15.654,21.733,15.51z
			 M15.942,2.114c0.633,0,2.069,2.138,2.95,6.276c-0.974,0.391-1.975,0.835-2.99,1.331C14.909,9.252,13.93,8.83,12.979,8.46
			C13.856,4.276,15.306,2.114,15.942,2.114z M3.149,8.926c0.133-0.075,0.562-0.265,1.591-0.265c1.55,0,3.593,0.428,5.847,1.187
			c-0.148,0.989-0.263,2.027-0.337,3.106c-0.845,0.559-1.646,1.127-2.393,1.697C4.508,11.92,3.126,9.685,3.149,8.926z M4.734,23.368
			c-0.989,0-1.393-0.188-1.494-0.242c-0.044-0.751,1.311-3.002,4.648-5.782c0.741,0.549,1.53,1.098,2.364,1.635
			c0.078,1.098,0.194,2.154,0.35,3.158C8.333,22.926,6.284,23.368,4.734,23.368z M15.942,29.766c-0.633,0-2.07-2.137-2.949-6.275
			c0.972-0.391,1.972-0.835,2.987-1.33c0.994,0.473,1.974,0.893,2.926,1.264C18.028,27.605,16.58,29.766,15.942,29.766z
			 M27.145,23.219c-1.549,0-3.592-0.428-5.848-1.188c0.149-0.989,0.264-2.027,0.337-3.105c0.847-0.56,1.646-1.125,2.394-1.695
			c3.353,2.732,4.731,4.967,4.709,5.726C28.604,23.032,28.173,23.219,27.145,23.219z"/>
		<circle cx="15.942" cy="15.807" r="2.069"/>
	</g>
</g>
<g>
</g>
<g>
</g>
<g>
</g>
<g>
</g>
<g>
</g>
<g>
</g>
<g>
</g>
<g>
</g>
<g>
</g>
<g>
</g>
<g>
</g>
<g>
</g>
<g>
</g>
<g>
</g>
<g>
</g>
</svg>
